<svg xmlns="http://www.w3.org/2000/svg" viewBox="0 0 900 600">
<defs>
  <linearGradient id="bg" x1="0" y1="0" x2="1" y2="1"><stop stop-color="#08111f"/><stop offset="1" stop-color="#111827"/></linearGradient>
  <linearGradient id="board" x1="0" y1="0" x2="1" y2="1"><stop stop-color="#163d31"/><stop offset="1" stop-color="#071b18"/></linearGradient>
  <filter id="glow"><feGaussianBlur stdDeviation="8" result="b"/><feMerge><feMergeNode in="b"/><feMergeNode in="SourceGraphic"/></feMerge></filter>
</defs>
<rect width="900" height="600" rx="28" fill="url(#bg)"/>
<circle cx="770" cy="100" r="110" fill="#1f7a68" opacity=".14"/>
<text x="55" y="65" fill="#73f7c7" font-family="Arial" font-size="20" font-weight="700">iCAR • SMART SECURITY</text>
<text x="55" y="98" fill="#8ea2b8" font-family="Arial" font-size="14">ARDUINO + KEYPAD + GSM</text>
<rect x="120" y="175" width="470" height="290" rx="24" fill="url(#board)" stroke="#2b8069" stroke-width="3"/>
<rect x="160" y="220" width="230" height="150" rx="12" fill="#102b25" stroke="#3ab78e"/>
<text x="188" y="258" fill="#71f6c4" font-family="Arial" font-size="24" font-weight="700">iCAR</text>
<text x="188" y="286" fill="#a7c9bd" font-family="Arial" font-size="15">SECURE • SAVE • ALERT</text>
<circle cx="190" cy="325" r="9" fill="#71f6c4" filter="url(#glow)"/>
<text x="210" y="331" fill="#d4eee6" font-family="Arial" font-size="15">SYSTEM ACTIVE</text>
<g fill="#203d36" stroke="#5cd8ae">
  <rect x="430" y="225" width="34" height="34" rx="7"/><rect x="474" y="225" width="34" height="34" rx="7"/>
  <rect x="430" y="269" width="34" height="34" rx="7"/><rect x="474" y="269" width="34" height="34" rx="7"/>
  <rect x="430" y="313" width="34" height="34" rx="7"/><rect x="474" y="313" width="34" height="34" rx="7"/>
</g>
<g fill="#71f6c4" font-family="Arial" font-size="13" text-anchor="middle"><text x="447" y="247">1</text><text x="491" y="247">2</text><text x="447" y="291">3</text><text x="491" y="291">4</text><text x="447" y="335">5</text><text x="491" y="335">6</text></g>
<rect x="635" y="205" width="185" height="210" rx="18" fill="#0c1725" stroke="#2b415c"/>
<text x="660" y="245" fill="#7aa0c5" font-family="Arial" font-size="13">GSM ALERT</text>
<path d="M665 286 H790 M665 326 H755" stroke="#36536e" stroke-width="8" stroke-linecap="round"/>
<circle cx="780" cy="375" r="14" fill="#ff6572" filter="url(#glow)"/>
<text x="660" y="382" fill="#f0aab1" font-family="Arial" font-size="13">SMS READY</text>
<path d="M590 335 C625 335 625 285 655 285" fill="none" stroke="#71f6c4" stroke-width="3" stroke-dasharray="7 7"/>
<text x="55" y="535" fill="#9ab0c4" font-family="Arial" font-size="15">Unauthorized entry → detection → SMS notification within seconds</text>
</svg>